<mxfile host="Electron" modified="2025-09-23T21:48:21.367Z" agent="Mozilla/5.0 (X11; Linux x86_64) AppleWebKit/537.36 (KHTML, like Gecko) draw.io/21.6.5 Chrome/114.0.5735.243 Electron/25.3.1 Safari/537.36" etag="JwG0PxE2URnrdA6Wzc4q" version="21.6.5" type="device">
  <diagram name="Page-1" id="wrSVjfIkB8USQ3kSRlsy">
    <mxGraphModel dx="691" dy="476" grid="1" gridSize="10" guides="1" tooltips="1" connect="1" arrows="1" fold="1" page="1" pageScale="1" pageWidth="827" pageHeight="1169" math="0" shadow="0">
      <root>
        <mxCell id="0" />
        <mxCell id="1" parent="0" />
        <mxCell id="mpmNPTWM7t_Gxc22tmOo-7" value="" style="group" vertex="1" connectable="0" parent="1">
          <mxGeometry x="100" y="450" width="80" height="40" as="geometry" />
        </mxCell>
        <mxCell id="mpmNPTWM7t_Gxc22tmOo-8" value="" style="rounded=0;whiteSpace=wrap;html=1;fillColor=#dae8fc;strokeColor=#6c8ebf;" vertex="1" parent="mpmNPTWM7t_Gxc22tmOo-7">
          <mxGeometry x="20" width="40" height="40" as="geometry" />
        </mxCell>
        <mxCell id="mpmNPTWM7t_Gxc22tmOo-9" value="" style="triangle;whiteSpace=wrap;html=1;rotation=-90;fillColor=#dae8fc;strokeColor=#6c8ebf;" vertex="1" parent="mpmNPTWM7t_Gxc22tmOo-7">
          <mxGeometry x="35" y="25" width="10" height="20" as="geometry" />
        </mxCell>
        <mxCell id="mpmNPTWM7t_Gxc22tmOo-10" value="" style="endArrow=none;html=1;rounded=0;exitX=1;exitY=0.5;exitDx=0;exitDy=0;" edge="1" parent="mpmNPTWM7t_Gxc22tmOo-7" source="mpmNPTWM7t_Gxc22tmOo-8">
          <mxGeometry width="50" height="50" relative="1" as="geometry">
            <mxPoint x="110" y="80" as="sourcePoint" />
            <mxPoint x="80" y="20" as="targetPoint" />
          </mxGeometry>
        </mxCell>
        <mxCell id="mpmNPTWM7t_Gxc22tmOo-11" value="" style="endArrow=none;html=1;rounded=0;exitX=1;exitY=0.5;exitDx=0;exitDy=0;" edge="1" parent="mpmNPTWM7t_Gxc22tmOo-7">
          <mxGeometry width="50" height="50" relative="1" as="geometry">
            <mxPoint y="19.920000000000016" as="sourcePoint" />
            <mxPoint x="20" y="19.920000000000016" as="targetPoint" />
          </mxGeometry>
        </mxCell>
        <mxCell id="mpmNPTWM7t_Gxc22tmOo-18" value="" style="endArrow=none;html=1;rounded=0;" edge="1" parent="1">
          <mxGeometry width="50" height="50" relative="1" as="geometry">
            <mxPoint x="230" y="470" as="sourcePoint" />
            <mxPoint x="180" y="470" as="targetPoint" />
          </mxGeometry>
        </mxCell>
        <mxCell id="mpmNPTWM7t_Gxc22tmOo-20" value="rule" style="rounded=0;whiteSpace=wrap;html=1;fontSize=9;fillColor=#fff2cc;strokeColor=#d6b656;" vertex="1" parent="1">
          <mxGeometry x="230" y="465" width="20" height="10" as="geometry" />
        </mxCell>
        <mxCell id="mpmNPTWM7t_Gxc22tmOo-30" value="" style="rounded=0;whiteSpace=wrap;html=1;fillColor=#fff2cc;strokeColor=#d6b656;" vertex="1" parent="1">
          <mxGeometry x="230" y="455" width="20" height="10" as="geometry" />
        </mxCell>
        <mxCell id="mpmNPTWM7t_Gxc22tmOo-31" value="" style="rounded=0;whiteSpace=wrap;html=1;fillColor=#fff2cc;strokeColor=#d6b656;" vertex="1" parent="1">
          <mxGeometry x="230" y="475" width="20" height="10" as="geometry" />
        </mxCell>
        <mxCell id="mpmNPTWM7t_Gxc22tmOo-32" value="" style="endArrow=none;html=1;rounded=0;entryX=1;entryY=0.5;entryDx=0;entryDy=0;" edge="1" parent="1" target="mpmNPTWM7t_Gxc22tmOo-20">
          <mxGeometry width="50" height="50" relative="1" as="geometry">
            <mxPoint x="100" y="470" as="sourcePoint" />
            <mxPoint x="250" y="465" as="targetPoint" />
            <Array as="points">
              <mxPoint x="100" y="445" />
              <mxPoint x="260" y="445" />
              <mxPoint x="260" y="470" />
            </Array>
          </mxGeometry>
        </mxCell>
        <mxCell id="mpmNPTWM7t_Gxc22tmOo-33" value="" style="group" vertex="1" connectable="0" parent="1">
          <mxGeometry x="100" y="500" width="80" height="40" as="geometry" />
        </mxCell>
        <mxCell id="mpmNPTWM7t_Gxc22tmOo-34" value="" style="rounded=0;whiteSpace=wrap;html=1;fillColor=#dae8fc;strokeColor=#6c8ebf;" vertex="1" parent="mpmNPTWM7t_Gxc22tmOo-33">
          <mxGeometry x="20" width="40" height="40" as="geometry" />
        </mxCell>
        <mxCell id="mpmNPTWM7t_Gxc22tmOo-35" value="" style="triangle;whiteSpace=wrap;html=1;rotation=-90;fillColor=#dae8fc;strokeColor=#6c8ebf;" vertex="1" parent="mpmNPTWM7t_Gxc22tmOo-33">
          <mxGeometry x="35" y="25" width="10" height="20" as="geometry" />
        </mxCell>
        <mxCell id="mpmNPTWM7t_Gxc22tmOo-36" value="" style="endArrow=none;html=1;rounded=0;exitX=1;exitY=0.5;exitDx=0;exitDy=0;" edge="1" parent="mpmNPTWM7t_Gxc22tmOo-33" source="mpmNPTWM7t_Gxc22tmOo-34">
          <mxGeometry width="50" height="50" relative="1" as="geometry">
            <mxPoint x="110" y="80" as="sourcePoint" />
            <mxPoint x="80" y="20" as="targetPoint" />
          </mxGeometry>
        </mxCell>
        <mxCell id="mpmNPTWM7t_Gxc22tmOo-37" value="" style="endArrow=none;html=1;rounded=0;exitX=1;exitY=0.5;exitDx=0;exitDy=0;" edge="1" parent="mpmNPTWM7t_Gxc22tmOo-33">
          <mxGeometry width="50" height="50" relative="1" as="geometry">
            <mxPoint y="19.920000000000016" as="sourcePoint" />
            <mxPoint x="20" y="19.920000000000016" as="targetPoint" />
          </mxGeometry>
        </mxCell>
        <mxCell id="mpmNPTWM7t_Gxc22tmOo-39" value="" style="endArrow=none;html=1;rounded=0;" edge="1" parent="1">
          <mxGeometry width="50" height="50" relative="1" as="geometry">
            <mxPoint x="230" y="520" as="sourcePoint" />
            <mxPoint x="180" y="520" as="targetPoint" />
          </mxGeometry>
        </mxCell>
        <mxCell id="mpmNPTWM7t_Gxc22tmOo-41" value="rule" style="rounded=0;whiteSpace=wrap;html=1;fontSize=9;fillColor=#fff2cc;strokeColor=#d6b656;" vertex="1" parent="1">
          <mxGeometry x="230" y="515" width="20" height="10" as="geometry" />
        </mxCell>
        <mxCell id="mpmNPTWM7t_Gxc22tmOo-42" value="" style="rounded=0;whiteSpace=wrap;html=1;fillColor=#fff2cc;strokeColor=#d6b656;" vertex="1" parent="1">
          <mxGeometry x="230" y="505" width="20" height="10" as="geometry" />
        </mxCell>
        <mxCell id="mpmNPTWM7t_Gxc22tmOo-43" value="" style="rounded=0;whiteSpace=wrap;html=1;fillColor=#fff2cc;strokeColor=#d6b656;" vertex="1" parent="1">
          <mxGeometry x="230" y="525" width="20" height="10" as="geometry" />
        </mxCell>
        <mxCell id="mpmNPTWM7t_Gxc22tmOo-44" value="" style="endArrow=none;html=1;rounded=0;entryX=1;entryY=0.5;entryDx=0;entryDy=0;" edge="1" parent="1" target="mpmNPTWM7t_Gxc22tmOo-41">
          <mxGeometry width="50" height="50" relative="1" as="geometry">
            <mxPoint x="100" y="520" as="sourcePoint" />
            <mxPoint x="250" y="515" as="targetPoint" />
            <Array as="points">
              <mxPoint x="100" y="495" />
              <mxPoint x="260" y="495" />
              <mxPoint x="260" y="520" />
            </Array>
          </mxGeometry>
        </mxCell>
        <mxCell id="mpmNPTWM7t_Gxc22tmOo-45" value="" style="group" vertex="1" connectable="0" parent="1">
          <mxGeometry x="100" y="550" width="80" height="40" as="geometry" />
        </mxCell>
        <mxCell id="mpmNPTWM7t_Gxc22tmOo-46" value="" style="rounded=0;whiteSpace=wrap;html=1;fillColor=#dae8fc;strokeColor=#6c8ebf;" vertex="1" parent="mpmNPTWM7t_Gxc22tmOo-45">
          <mxGeometry x="20" width="40" height="40" as="geometry" />
        </mxCell>
        <mxCell id="mpmNPTWM7t_Gxc22tmOo-47" value="" style="triangle;whiteSpace=wrap;html=1;rotation=-90;fillColor=#dae8fc;strokeColor=#6c8ebf;" vertex="1" parent="mpmNPTWM7t_Gxc22tmOo-45">
          <mxGeometry x="35" y="25" width="10" height="20" as="geometry" />
        </mxCell>
        <mxCell id="mpmNPTWM7t_Gxc22tmOo-48" value="" style="endArrow=none;html=1;rounded=0;exitX=1;exitY=0.5;exitDx=0;exitDy=0;" edge="1" parent="mpmNPTWM7t_Gxc22tmOo-45" source="mpmNPTWM7t_Gxc22tmOo-46">
          <mxGeometry width="50" height="50" relative="1" as="geometry">
            <mxPoint x="110" y="80" as="sourcePoint" />
            <mxPoint x="80" y="20" as="targetPoint" />
          </mxGeometry>
        </mxCell>
        <mxCell id="mpmNPTWM7t_Gxc22tmOo-49" value="" style="endArrow=none;html=1;rounded=0;exitX=1;exitY=0.5;exitDx=0;exitDy=0;" edge="1" parent="mpmNPTWM7t_Gxc22tmOo-45">
          <mxGeometry width="50" height="50" relative="1" as="geometry">
            <mxPoint y="19.920000000000016" as="sourcePoint" />
            <mxPoint x="20" y="19.920000000000016" as="targetPoint" />
          </mxGeometry>
        </mxCell>
        <mxCell id="mpmNPTWM7t_Gxc22tmOo-51" value="" style="endArrow=none;html=1;rounded=0;" edge="1" parent="1">
          <mxGeometry width="50" height="50" relative="1" as="geometry">
            <mxPoint x="230" y="570" as="sourcePoint" />
            <mxPoint x="180" y="570" as="targetPoint" />
          </mxGeometry>
        </mxCell>
        <mxCell id="mpmNPTWM7t_Gxc22tmOo-53" value="rule" style="rounded=0;whiteSpace=wrap;html=1;fontSize=9;fillColor=#fff2cc;strokeColor=#d6b656;" vertex="1" parent="1">
          <mxGeometry x="230" y="565" width="20" height="10" as="geometry" />
        </mxCell>
        <mxCell id="mpmNPTWM7t_Gxc22tmOo-54" value="" style="rounded=0;whiteSpace=wrap;html=1;fillColor=#fff2cc;strokeColor=#d6b656;" vertex="1" parent="1">
          <mxGeometry x="230" y="555" width="20" height="10" as="geometry" />
        </mxCell>
        <mxCell id="mpmNPTWM7t_Gxc22tmOo-55" value="" style="rounded=0;whiteSpace=wrap;html=1;fillColor=#fff2cc;strokeColor=#d6b656;" vertex="1" parent="1">
          <mxGeometry x="230" y="575" width="20" height="10" as="geometry" />
        </mxCell>
        <mxCell id="mpmNPTWM7t_Gxc22tmOo-56" value="" style="endArrow=none;html=1;rounded=0;entryX=1;entryY=0.5;entryDx=0;entryDy=0;" edge="1" parent="1" target="mpmNPTWM7t_Gxc22tmOo-53">
          <mxGeometry width="50" height="50" relative="1" as="geometry">
            <mxPoint x="100" y="570" as="sourcePoint" />
            <mxPoint x="250" y="565" as="targetPoint" />
            <Array as="points">
              <mxPoint x="100" y="545" />
              <mxPoint x="260" y="545" />
              <mxPoint x="260" y="570" />
            </Array>
          </mxGeometry>
        </mxCell>
        <mxCell id="mpmNPTWM7t_Gxc22tmOo-57" value="" style="group" vertex="1" connectable="0" parent="1">
          <mxGeometry x="100" y="600" width="80" height="40" as="geometry" />
        </mxCell>
        <mxCell id="mpmNPTWM7t_Gxc22tmOo-58" value="" style="rounded=0;whiteSpace=wrap;html=1;fillColor=#dae8fc;strokeColor=#6c8ebf;" vertex="1" parent="mpmNPTWM7t_Gxc22tmOo-57">
          <mxGeometry x="20" width="40" height="40" as="geometry" />
        </mxCell>
        <mxCell id="mpmNPTWM7t_Gxc22tmOo-59" value="" style="triangle;whiteSpace=wrap;html=1;rotation=-90;fillColor=#dae8fc;strokeColor=#6c8ebf;" vertex="1" parent="mpmNPTWM7t_Gxc22tmOo-57">
          <mxGeometry x="35" y="25" width="10" height="20" as="geometry" />
        </mxCell>
        <mxCell id="mpmNPTWM7t_Gxc22tmOo-60" value="" style="endArrow=none;html=1;rounded=0;exitX=1;exitY=0.5;exitDx=0;exitDy=0;" edge="1" parent="mpmNPTWM7t_Gxc22tmOo-57" source="mpmNPTWM7t_Gxc22tmOo-58">
          <mxGeometry width="50" height="50" relative="1" as="geometry">
            <mxPoint x="110" y="80" as="sourcePoint" />
            <mxPoint x="80" y="20" as="targetPoint" />
          </mxGeometry>
        </mxCell>
        <mxCell id="mpmNPTWM7t_Gxc22tmOo-61" value="" style="endArrow=none;html=1;rounded=0;exitX=1;exitY=0.5;exitDx=0;exitDy=0;" edge="1" parent="mpmNPTWM7t_Gxc22tmOo-57">
          <mxGeometry width="50" height="50" relative="1" as="geometry">
            <mxPoint y="19.920000000000016" as="sourcePoint" />
            <mxPoint x="20" y="19.920000000000016" as="targetPoint" />
          </mxGeometry>
        </mxCell>
        <mxCell id="mpmNPTWM7t_Gxc22tmOo-63" value="" style="endArrow=none;html=1;rounded=0;" edge="1" parent="1">
          <mxGeometry width="50" height="50" relative="1" as="geometry">
            <mxPoint x="230" y="620" as="sourcePoint" />
            <mxPoint x="180" y="620" as="targetPoint" />
          </mxGeometry>
        </mxCell>
        <mxCell id="mpmNPTWM7t_Gxc22tmOo-65" value="rule" style="rounded=0;whiteSpace=wrap;html=1;fontSize=9;fillColor=#fff2cc;strokeColor=#d6b656;" vertex="1" parent="1">
          <mxGeometry x="230" y="615" width="20" height="10" as="geometry" />
        </mxCell>
        <mxCell id="mpmNPTWM7t_Gxc22tmOo-66" value="" style="rounded=0;whiteSpace=wrap;html=1;fillColor=#fff2cc;strokeColor=#d6b656;" vertex="1" parent="1">
          <mxGeometry x="230" y="605" width="20" height="10" as="geometry" />
        </mxCell>
        <mxCell id="mpmNPTWM7t_Gxc22tmOo-67" value="" style="rounded=0;whiteSpace=wrap;html=1;fillColor=#fff2cc;strokeColor=#d6b656;" vertex="1" parent="1">
          <mxGeometry x="230" y="625" width="20" height="10" as="geometry" />
        </mxCell>
        <mxCell id="mpmNPTWM7t_Gxc22tmOo-68" value="" style="endArrow=none;html=1;rounded=0;entryX=1;entryY=0.5;entryDx=0;entryDy=0;" edge="1" parent="1" target="mpmNPTWM7t_Gxc22tmOo-65">
          <mxGeometry width="50" height="50" relative="1" as="geometry">
            <mxPoint x="100" y="620" as="sourcePoint" />
            <mxPoint x="250" y="615" as="targetPoint" />
            <Array as="points">
              <mxPoint x="100" y="595" />
              <mxPoint x="260" y="595" />
              <mxPoint x="260" y="620" />
            </Array>
          </mxGeometry>
        </mxCell>
        <mxCell id="mpmNPTWM7t_Gxc22tmOo-69" value="" style="group" vertex="1" connectable="0" parent="1">
          <mxGeometry x="100" y="650" width="80" height="40" as="geometry" />
        </mxCell>
        <mxCell id="mpmNPTWM7t_Gxc22tmOo-70" value="" style="rounded=0;whiteSpace=wrap;html=1;fillColor=#dae8fc;strokeColor=#6c8ebf;" vertex="1" parent="mpmNPTWM7t_Gxc22tmOo-69">
          <mxGeometry x="20" width="40" height="40" as="geometry" />
        </mxCell>
        <mxCell id="mpmNPTWM7t_Gxc22tmOo-71" value="" style="triangle;whiteSpace=wrap;html=1;rotation=-90;fillColor=#dae8fc;strokeColor=#6c8ebf;" vertex="1" parent="mpmNPTWM7t_Gxc22tmOo-69">
          <mxGeometry x="35" y="25" width="10" height="20" as="geometry" />
        </mxCell>
        <mxCell id="mpmNPTWM7t_Gxc22tmOo-72" value="" style="endArrow=none;html=1;rounded=0;exitX=1;exitY=0.5;exitDx=0;exitDy=0;" edge="1" parent="mpmNPTWM7t_Gxc22tmOo-69" source="mpmNPTWM7t_Gxc22tmOo-70">
          <mxGeometry width="50" height="50" relative="1" as="geometry">
            <mxPoint x="110" y="80" as="sourcePoint" />
            <mxPoint x="80" y="20" as="targetPoint" />
          </mxGeometry>
        </mxCell>
        <mxCell id="mpmNPTWM7t_Gxc22tmOo-73" value="" style="endArrow=none;html=1;rounded=0;exitX=1;exitY=0.5;exitDx=0;exitDy=0;" edge="1" parent="mpmNPTWM7t_Gxc22tmOo-69">
          <mxGeometry width="50" height="50" relative="1" as="geometry">
            <mxPoint y="19.920000000000016" as="sourcePoint" />
            <mxPoint x="20" y="19.920000000000016" as="targetPoint" />
          </mxGeometry>
        </mxCell>
        <mxCell id="mpmNPTWM7t_Gxc22tmOo-75" value="" style="endArrow=none;html=1;rounded=0;" edge="1" parent="1">
          <mxGeometry width="50" height="50" relative="1" as="geometry">
            <mxPoint x="230" y="670" as="sourcePoint" />
            <mxPoint x="180" y="670" as="targetPoint" />
          </mxGeometry>
        </mxCell>
        <mxCell id="mpmNPTWM7t_Gxc22tmOo-77" value="rule" style="rounded=0;whiteSpace=wrap;html=1;fontSize=9;fillColor=#fff2cc;strokeColor=#d6b656;" vertex="1" parent="1">
          <mxGeometry x="230" y="665" width="20" height="10" as="geometry" />
        </mxCell>
        <mxCell id="mpmNPTWM7t_Gxc22tmOo-78" value="" style="rounded=0;whiteSpace=wrap;html=1;fillColor=#fff2cc;strokeColor=#d6b656;" vertex="1" parent="1">
          <mxGeometry x="230" y="655" width="20" height="10" as="geometry" />
        </mxCell>
        <mxCell id="mpmNPTWM7t_Gxc22tmOo-79" value="" style="rounded=0;whiteSpace=wrap;html=1;fillColor=#fff2cc;strokeColor=#d6b656;" vertex="1" parent="1">
          <mxGeometry x="230" y="675" width="20" height="10" as="geometry" />
        </mxCell>
        <mxCell id="mpmNPTWM7t_Gxc22tmOo-80" value="" style="endArrow=none;html=1;rounded=0;entryX=1;entryY=0.5;entryDx=0;entryDy=0;" edge="1" parent="1" target="mpmNPTWM7t_Gxc22tmOo-77">
          <mxGeometry width="50" height="50" relative="1" as="geometry">
            <mxPoint x="100" y="670" as="sourcePoint" />
            <mxPoint x="250" y="665" as="targetPoint" />
            <Array as="points">
              <mxPoint x="100" y="645" />
              <mxPoint x="260" y="645" />
              <mxPoint x="260" y="670" />
            </Array>
          </mxGeometry>
        </mxCell>
        <mxCell id="mpmNPTWM7t_Gxc22tmOo-81" value="0" style="text;html=1;strokeColor=none;fillColor=none;align=center;verticalAlign=middle;whiteSpace=wrap;rounded=0;" vertex="1" parent="1">
          <mxGeometry x="150" y="390" width="60" height="30" as="geometry" />
        </mxCell>
        <mxCell id="mpmNPTWM7t_Gxc22tmOo-82" value="0" style="text;html=1;strokeColor=none;fillColor=none;align=center;verticalAlign=middle;whiteSpace=wrap;rounded=0;" vertex="1" parent="1">
          <mxGeometry x="150" y="720" width="60" height="30" as="geometry" />
        </mxCell>
        <mxCell id="mpmNPTWM7t_Gxc22tmOo-89" value="" style="curved=1;endArrow=none;html=1;rounded=0;endFill=0;" edge="1" parent="1">
          <mxGeometry width="50" height="50" relative="1" as="geometry">
            <mxPoint x="180" y="520" as="sourcePoint" />
            <mxPoint x="210" y="470" as="targetPoint" />
            <Array as="points">
              <mxPoint x="190" y="470" />
            </Array>
          </mxGeometry>
        </mxCell>
        <mxCell id="mpmNPTWM7t_Gxc22tmOo-90" value="" style="curved=1;endArrow=none;html=1;rounded=0;endFill=0;" edge="1" parent="1">
          <mxGeometry width="50" height="50" relative="1" as="geometry">
            <mxPoint x="210" y="520" as="sourcePoint" />
            <mxPoint x="180" y="470" as="targetPoint" />
            <Array as="points">
              <mxPoint x="190" y="520" />
            </Array>
          </mxGeometry>
        </mxCell>
        <mxCell id="mpmNPTWM7t_Gxc22tmOo-95" value="" style="curved=1;endArrow=none;html=1;rounded=0;endFill=0;" edge="1" parent="1">
          <mxGeometry width="50" height="50" relative="1" as="geometry">
            <mxPoint x="180" y="570" as="sourcePoint" />
            <mxPoint x="210" y="520" as="targetPoint" />
            <Array as="points">
              <mxPoint x="190" y="520" />
            </Array>
          </mxGeometry>
        </mxCell>
        <mxCell id="mpmNPTWM7t_Gxc22tmOo-96" value="" style="curved=1;endArrow=none;html=1;rounded=0;endFill=0;" edge="1" parent="1">
          <mxGeometry width="50" height="50" relative="1" as="geometry">
            <mxPoint x="210" y="570" as="sourcePoint" />
            <mxPoint x="180" y="520" as="targetPoint" />
            <Array as="points">
              <mxPoint x="190" y="570" />
            </Array>
          </mxGeometry>
        </mxCell>
        <mxCell id="mpmNPTWM7t_Gxc22tmOo-97" value="" style="curved=1;endArrow=none;html=1;rounded=0;endFill=0;" edge="1" parent="1">
          <mxGeometry width="50" height="50" relative="1" as="geometry">
            <mxPoint x="180" y="620" as="sourcePoint" />
            <mxPoint x="210" y="570" as="targetPoint" />
            <Array as="points">
              <mxPoint x="190" y="570" />
            </Array>
          </mxGeometry>
        </mxCell>
        <mxCell id="mpmNPTWM7t_Gxc22tmOo-98" value="" style="curved=1;endArrow=none;html=1;rounded=0;endFill=0;" edge="1" parent="1">
          <mxGeometry width="50" height="50" relative="1" as="geometry">
            <mxPoint x="210" y="620" as="sourcePoint" />
            <mxPoint x="180" y="570" as="targetPoint" />
            <Array as="points">
              <mxPoint x="190" y="620" />
            </Array>
          </mxGeometry>
        </mxCell>
        <mxCell id="mpmNPTWM7t_Gxc22tmOo-99" value="" style="curved=1;endArrow=none;html=1;rounded=0;endFill=0;" edge="1" parent="1">
          <mxGeometry width="50" height="50" relative="1" as="geometry">
            <mxPoint x="180" y="670" as="sourcePoint" />
            <mxPoint x="210" y="620" as="targetPoint" />
            <Array as="points">
              <mxPoint x="190" y="620" />
            </Array>
          </mxGeometry>
        </mxCell>
        <mxCell id="mpmNPTWM7t_Gxc22tmOo-100" value="" style="curved=1;endArrow=none;html=1;rounded=0;endFill=0;" edge="1" parent="1">
          <mxGeometry width="50" height="50" relative="1" as="geometry">
            <mxPoint x="210" y="670" as="sourcePoint" />
            <mxPoint x="180" y="620" as="targetPoint" />
            <Array as="points">
              <mxPoint x="190" y="670" />
            </Array>
          </mxGeometry>
        </mxCell>
        <mxCell id="mpmNPTWM7t_Gxc22tmOo-101" value="" style="curved=1;endArrow=none;html=1;rounded=0;endFill=0;" edge="1" parent="1">
          <mxGeometry width="50" height="50" relative="1" as="geometry">
            <mxPoint x="180" y="720" as="sourcePoint" />
            <mxPoint x="210" y="670" as="targetPoint" />
            <Array as="points">
              <mxPoint x="190" y="670" />
            </Array>
          </mxGeometry>
        </mxCell>
        <mxCell id="mpmNPTWM7t_Gxc22tmOo-102" value="" style="curved=1;endArrow=none;html=1;rounded=0;endFill=0;" edge="1" parent="1">
          <mxGeometry width="50" height="50" relative="1" as="geometry">
            <mxPoint x="210" y="470" as="sourcePoint" />
            <mxPoint x="180" y="420" as="targetPoint" />
            <Array as="points">
              <mxPoint x="190" y="470" />
            </Array>
          </mxGeometry>
        </mxCell>
        <mxCell id="mpmNPTWM7t_Gxc22tmOo-103" value="" style="endArrow=none;html=1;rounded=0;" edge="1" parent="1">
          <mxGeometry width="50" height="50" relative="1" as="geometry">
            <mxPoint x="260" y="670" as="sourcePoint" />
            <mxPoint x="280" y="670" as="targetPoint" />
          </mxGeometry>
        </mxCell>
        <mxCell id="mpmNPTWM7t_Gxc22tmOo-104" value="" style="endArrow=none;html=1;rounded=0;" edge="1" parent="1">
          <mxGeometry width="50" height="50" relative="1" as="geometry">
            <mxPoint x="260" y="620" as="sourcePoint" />
            <mxPoint x="280" y="620" as="targetPoint" />
          </mxGeometry>
        </mxCell>
        <mxCell id="mpmNPTWM7t_Gxc22tmOo-105" value="" style="endArrow=none;html=1;rounded=0;" edge="1" parent="1">
          <mxGeometry width="50" height="50" relative="1" as="geometry">
            <mxPoint x="260" y="570" as="sourcePoint" />
            <mxPoint x="280" y="570" as="targetPoint" />
          </mxGeometry>
        </mxCell>
        <mxCell id="mpmNPTWM7t_Gxc22tmOo-106" value="" style="endArrow=none;html=1;rounded=0;" edge="1" parent="1">
          <mxGeometry width="50" height="50" relative="1" as="geometry">
            <mxPoint x="260" y="520" as="sourcePoint" />
            <mxPoint x="280" y="520" as="targetPoint" />
          </mxGeometry>
        </mxCell>
        <mxCell id="mpmNPTWM7t_Gxc22tmOo-107" value="" style="endArrow=none;html=1;rounded=0;" edge="1" parent="1">
          <mxGeometry width="50" height="50" relative="1" as="geometry">
            <mxPoint x="260" y="470" as="sourcePoint" />
            <mxPoint x="280" y="470" as="targetPoint" />
          </mxGeometry>
        </mxCell>
      </root>
    </mxGraphModel>
  </diagram>
</mxfile>
